<svg id="Layer_1" data-name="Layer 1" xmlns="http://www.w3.org/2000/svg" viewBox="0 0 89.8 89.8"><circle cx="44.9" cy="44.9" r="43.65" fill="none" stroke="#fff" stroke-miterlimit="10" stroke-width="2.5"/><path d="M67.09,79.63H63.35c-.68,0-1.35-.06-1.72-.75s0-1.27.42-1.82L79,52.17c.42-.62.83-1.25,1.26-1.86s.86-1.45,1.85-1.07.86,1.27.68,2.12Q81.6,56.9,80.44,62.43C80,64.71,79.53,67,79,69.25c-.2.85,0,1.13.88,1.12,2.24,0,4.48,0,6.73,0,.67,0,1.35,0,1.75.69s0,1.28-.37,1.84Q79.55,86.11,71.08,99.31c-.48.75-.88,2-2.13,1.42s-.7-1.62-.51-2.52c1.19-5.72,2.38-11.45,3.61-17.16.23-1,0-1.47-1.1-1.43-1.29.06-2.58,0-3.86,0Z" transform="translate(-30.1 -30.1)" fill="#fff"/></svg>