<?xml version="1.0" encoding="iso-8859-1"?>
<!-- Uploaded to: SVG Repo, www.svgrepo.com, Generator: SVG Repo Mixer Tools -->
<svg height="800px" width="800px" version="1.1" id="Layer_1" xmlns="http://www.w3.org/2000/svg" xmlns:xlink="http://www.w3.org/1999/xlink" 
	 viewBox="0 0 511.999 511.999" xml:space="preserve">
<path style="fill:#9AD14B;" d="M214.305,81.901L214.305,81.901c0-40.596,32.91-73.507,73.507-73.507l0,0l0,0
	C287.811,48.992,254.902,81.901,214.305,81.901L214.305,81.901z"/>
<path style="fill:#F7B239;" d="M450.491,391.131c0.895,61.281-48.722,112.04-110.003,112.477
	c-31.06,0.213-59.199-12.357-79.447-32.75c-19.878-20.035-32.157-47.614-32.157-78.059c0-31.474,13.118-59.882,34.194-80.051
	c9.021-8.641,14.293-20.483,14.293-32.985v-4.925c0-22.531,12.502-42.141,30.948-52.271c8.495-4.679,18.267-7.331,28.654-7.331
	c16.453,0,31.362,6.671,42.141,17.461c10.79,10.779,17.461,25.688,17.461,42.141c0,6.559,1.421,12.961,4.097,18.782
	c2.664,5.843,6.57,11.103,11.529,15.401C435.269,328.999,449.999,358.336,450.491,391.131z"/>
<path style="fill:#E09B2D;" d="M304.24,470.857c-15.48-20.035-25.041-47.614-25.041-78.059c0-31.474,10.215-59.882,26.627-80.051
	c7.025-8.641,11.13-20.483,11.13-32.985v-4.925c0-22.531,9.736-42.141,24.099-52.271c3.353-2.372,6.965-4.217,10.762-5.467
	c-4.747-1.217-9.72-1.865-14.844-1.865c-10.387,0-20.158,2.653-28.654,7.331c-18.446,10.13-30.948,29.739-30.948,52.271v4.925
	c0,12.502-5.272,24.344-14.293,32.985c-21.076,20.169-34.194,48.577-34.194,80.051c0,30.445,12.279,58.024,32.157,78.059
	c20.248,20.393,48.387,32.963,79.447,32.75c4.637-0.034,9.205-0.359,13.692-0.95C334.762,499.389,317.369,487.84,304.24,470.857z"/>
<path style="fill:#F95428;" d="M292.336,181.735c0,15.2,5.831,29.661,15.983,40.831c-18.446,10.13-30.948,29.739-30.948,52.271
	v4.925c0,12.502-5.272,24.344-14.293,32.985c-21.076,20.17-34.194,48.577-34.194,80.051c0,30.445,12.279,58.024,32.157,78.059
	c-16.431,6.156-34.25,9.469-52.864,9.335c-81.697-0.582-147.869-68.265-146.66-149.962c0.638-43.73,20.281-82.849,51.039-109.488
	c6.604-5.731,11.82-12.749,15.379-20.528c3.559-7.768,5.462-16.297,5.462-25.05c0-21.938,8.898-41.816,23.281-56.188
	c14.372-14.383,34.25-23.281,56.188-23.281c43.887,0,79.469,35.582,79.469,79.469L292.336,181.735L292.336,181.735z"/>
<path style="fill:#E54728;" d="M116.915,330.23c0.516-43.73,16.419-82.849,41.318-109.488c5.346-5.731,9.569-12.749,12.45-20.528
	c2.881-7.768,4.422-16.297,4.422-25.05c0-21.938,7.204-41.816,18.848-56.188c8.973-11.093,20.604-18.901,33.6-21.903
	c-4.763-0.891-9.666-1.378-14.687-1.378c-21.938,0-41.816,8.898-56.188,23.281c-14.383,14.372-23.281,34.25-23.281,56.188
	c0,8.753-1.903,17.282-5.462,25.05c-3.559,7.779-8.775,14.797-15.379,20.528C81.798,247.381,62.154,286.5,61.516,330.23
	c-1.209,81.697,64.963,149.38,146.66,149.962c5.469,0.039,10.867-0.227,16.184-0.768
	C163.523,471.764,115.993,407.226,116.915,330.23z"/>
<g>
	<path style="fill:#FFFFFF;" d="M270.705,222.872c-3.327,0-6.475-1.99-7.791-5.265c-4.614-11.474-6.952-23.541-6.952-35.866v-6.57
		c0-23.761-19.331-43.092-43.092-43.092c-4.636,0-8.395-3.759-8.395-8.395c0-4.636,3.759-8.395,8.395-8.395
		c33.019,0,59.882,26.863,59.882,59.882v6.57c0,10.17,1.932,20.13,5.74,29.604c1.729,4.301-0.356,9.19-4.657,10.92
		C272.807,222.676,271.747,222.872,270.705,222.872z"/>
	<path style="fill:#FFFFFF;" d="M420.397,419.836c-0.628,0-1.266-0.07-1.904-0.218c-4.516-1.048-7.328-5.558-6.28-10.075
		c1.351-5.82,1.99-11.833,1.902-17.872c-0.311-21.162-9.689-41.267-25.727-55.159c-3.504-3.035-3.885-8.336-0.85-11.841
		c3.034-3.504,8.338-3.885,11.841-0.85c19.651,17.021,31.141,41.661,31.522,67.603c0.109,7.396-0.676,14.769-2.333,21.912
		C427.668,417.214,424.215,419.836,420.397,419.836z"/>
	<path style="fill:#FFFFFF;" d="M368.59,283.232c-4.636,0-8.395-3.759-8.395-8.395c0-9.345-5.575-17.746-14.204-21.402
		c-4.269-1.809-6.264-6.736-4.455-11.005c1.809-4.268,6.734-6.265,11.005-4.455c14.85,6.292,24.444,20.76,24.444,36.861
		C376.985,279.473,373.226,283.232,368.59,283.232z"/>
</g>
<path style="fill:#333333;" d="M458.879,391.013c-0.498-33.906-15.508-66.106-41.18-88.343c-8.092-7.01-12.733-17.155-12.733-27.834
	c0-34.551-25.91-63.146-59.319-67.423c1.129-10.797,6.022-30.34,26.367-36.154c4.457-1.274,7.039-5.92,5.765-10.378
	c-1.275-4.458-5.921-7.039-10.378-5.765c-28.189,8.054-37.267,34.267-38.69,52.243c-6.318,0.769-12.377,2.391-18.043,4.777
	c-6.435-8.927-9.936-19.516-9.936-30.396v-6.57c0-42.805-30.775-78.538-71.357-86.287c37.983-7.097,66.829-40.477,66.829-80.487
	c0-4.636-3.759-8.395-8.395-8.395c-34.431,0-63.948,21.368-76.039,51.531c-8.498-16.733-22.217-28.147-40.249-33.299
	c-4.457-1.272-9.103,1.307-10.378,5.765c-1.274,4.458,1.307,9.104,5.765,10.378c16.486,4.71,27.797,16.073,33.62,33.771
	c2.438,7.411,3.406,14.505,3.776,19.572c-20.24,1.944-39.01,10.764-53.56,25.325c-16.6,16.587-25.742,38.65-25.742,62.126
	c0,7.496-1.582,14.748-4.702,21.556c-3.114,6.805-7.571,12.754-13.241,17.675c-33.63,29.126-53.289,71.302-53.937,115.709
	c-0.619,41.782,15.241,81.351,44.656,111.417c29.4,30.052,68.585,46.766,110.336,47.063c0.386,0.002,0.771,0.003,1.157,0.003
	c17.029,0,33.711-2.727,49.687-8.097c22.08,20.364,50.536,31.503,80.717,31.503c0.287,0,0.58-0.001,0.866-0.002
	c31.874-0.225,61.788-12.981,84.231-35.918C447.238,453.127,459.348,422.916,458.879,391.013z M278.795,17.413
	c-3.994,28.703-26.77,51.479-55.474,55.473C227.316,44.183,250.092,21.406,278.795,17.413z M208.239,471.802
	c-37.242-0.265-72.208-15.185-98.455-42.015c-26.262-26.844-40.422-62.155-39.871-99.429c0.579-39.629,18.125-77.269,48.148-103.271
	c7.5-6.509,13.392-14.374,17.509-23.371c4.13-9.015,6.225-18.619,6.225-28.546c0-18.989,7.394-36.835,20.824-50.255
	c13.415-13.427,31.26-20.821,50.249-20.821c39.191,0,71.075,31.884,71.075,71.075v6.57c0,13.863,4.25,27.347,12.114,38.827
	c-16.439,12.423-27.084,32.125-27.084,54.271v4.929c0,9.986-4.267,19.798-11.705,26.918c-23.72,22.707-36.783,53.289-36.783,86.113
	c0,27.239,9.067,53.054,25.769,74.042C233.937,470.229,221.195,471.899,208.239,471.802z M412.778,464.339
	c-19.29,19.714-44.984,30.678-72.349,30.871c-0.248,0.002-0.497,0.002-0.745,0.002c-27.225,0-52.825-10.544-72.156-29.739
	c-19.51-19.373-30.254-45.182-30.254-72.675c0-28.2,11.224-54.476,31.603-73.985c10.731-10.272,16.884-24.505,16.884-39.046v-4.929
	c0-28.236,22.971-51.207,51.207-51.207s51.207,22.971,51.207,51.207c0,15.554,6.754,30.324,18.531,40.525
	c22.059,19.107,34.955,46.772,35.384,75.9C442.494,418.655,432.085,444.608,412.778,464.339z"/>
</svg>