<svg width="24" height="25" viewBox="0 0 24 25" fill="none" xmlns="http://www.w3.org/2000/svg">
<path d="M9 7.3335H4.6C4.03995 7.3335 3.75992 7.3335 3.54601 7.44249C3.35785 7.53836 3.20487 7.69134 3.10899 7.87951C3 8.09342 3 8.37344 3 8.9335V19.7335C3 20.2935 3 20.5736 3.10899 20.7875C3.20487 20.9756 3.35785 21.1286 3.54601 21.2245C3.75992 21.3335 4.03995 21.3335 4.6 21.3335H9M9 21.3335H15M9 21.3335L9 4.9335C9 4.37344 9 4.09342 9.10899 3.87951C9.20487 3.69134 9.35785 3.53836 9.54601 3.44249C9.75992 3.3335 10.0399 3.3335 10.6 3.3335L13.4 3.3335C13.9601 3.3335 14.2401 3.3335 14.454 3.44249C14.6422 3.53836 14.7951 3.69134 14.891 3.87951C15 4.09342 15 4.37344 15 4.9335V21.3335M15 11.3335H19.4C19.9601 11.3335 20.2401 11.3335 20.454 11.4425C20.6422 11.5384 20.7951 11.6913 20.891 11.8795C21 12.0934 21 12.3734 21 12.9335V19.7335C21 20.2935 21 20.5736 20.891 20.7875C20.7951 20.9756 20.6422 21.1286 20.454 21.2245C20.2401 21.3335 19.9601 21.3335 19.4 21.3335H15" stroke="black" stroke-width="2" stroke-linecap="round" stroke-linejoin="round"/>
</svg>
