<svg width="24" height="25" viewBox="0 0 24 25" fill="none" xmlns="http://www.w3.org/2000/svg">
<path d="M12 2.6665C13.3132 2.6665 14.6136 2.92516 15.8268 3.42771C17.0401 3.93026 18.1425 4.66685 19.0711 5.59544C19.9997 6.52403 20.7363 7.62642 21.2388 8.83967C21.7413 10.0529 22 11.3533 22 12.6665M12 2.6665V12.6665M12 2.6665C6.47715 2.6665 2 7.14366 2 12.6665C2 18.1894 6.47715 22.6665 12 22.6665C17.5228 22.6665 22 18.1894 22 12.6665M12 2.6665C17.5228 2.6665 22 7.14366 22 12.6665M22 12.6665L12 12.6665M22 12.6665C22 14.2446 21.6265 15.8003 20.9101 17.2064C20.1936 18.6125 19.1546 19.8291 17.8779 20.7567L12 12.6665" stroke="black" stroke-width="2" stroke-linecap="round" stroke-linejoin="round"/>
</svg>
