<svg width="24" height="25" viewBox="0 0 24 25" fill="none" xmlns="http://www.w3.org/2000/svg">
<path d="M14 11.3335H8M10 15.3335H8M16 7.3335H8M20 10.3335V7.1335C20 5.45334 20 4.61326 19.673 3.97152C19.3854 3.40704 18.9265 2.9481 18.362 2.66048C17.7202 2.3335 16.8802 2.3335 15.2 2.3335H8.8C7.11984 2.3335 6.27976 2.3335 5.63803 2.66048C5.07354 2.9481 4.6146 3.40704 4.32698 3.97152C4 4.61326 4 5.45334 4 7.1335V17.5335C4 19.2137 4 20.0537 4.32698 20.6955C4.6146 21.26 5.07354 21.7189 5.63803 22.0065C6.27976 22.3335 7.11984 22.3335 8.8 22.3335H12.5M18 21.3335C18 21.3335 21 19.9036 21 17.7587V15.2564L18.8124 14.4747C18.2868 14.2864 17.712 14.2864 17.1864 14.4747L15 15.2564V17.7587C15 19.9036 18 21.3335 18 21.3335Z" stroke="black" stroke-width="2" stroke-linecap="round" stroke-linejoin="round"/>
</svg>
