<svg width="24" height="25" viewBox="0 0 24 25" fill="none" xmlns="http://www.w3.org/2000/svg">
<path d="M10 8.66874C10.1762 8.16786 10.524 7.74551 10.9817 7.47648C11.4395 7.20745 11.9777 7.10911 12.501 7.19887C13.0243 7.28863 13.499 7.56071 13.8409 7.96691C14.1829 8.37311 14.37 8.88722 14.3692 9.41818C14.3692 10.9171 12.1209 11.6665 12.1209 11.6665M12.1499 14.6665H12.1599M7 18.6665V21.002C7 21.5349 7 21.8013 7.10923 21.9381C7.20422 22.0571 7.34827 22.1264 7.50054 22.1262C7.67563 22.126 7.88367 21.9596 8.29976 21.6267L10.6852 19.7183C11.1725 19.3285 11.4162 19.1336 11.6875 18.995C11.9282 18.872 12.1844 18.7821 12.4492 18.7278C12.7477 18.6665 13.0597 18.6665 13.6837 18.6665H16.2C17.8802 18.6665 18.7202 18.6665 19.362 18.3395C19.9265 18.0519 20.3854 17.593 20.673 17.0285C21 16.3867 21 15.5467 21 13.8665V8.4665C21 6.78635 21 5.94627 20.673 5.30453C20.3854 4.74005 19.9265 4.2811 19.362 3.99348C18.7202 3.6665 17.8802 3.6665 16.2 3.6665H7.8C6.11984 3.6665 5.27976 3.6665 4.63803 3.99348C4.07354 4.2811 3.6146 4.74005 3.32698 5.30453C3 5.94627 3 6.78635 3 8.4665V14.6665C3 15.5965 3 16.0615 3.10222 16.443C3.37962 17.4782 4.18827 18.2869 5.22354 18.5643C5.60504 18.6665 6.07003 18.6665 7 18.6665Z" stroke="black" stroke-width="2" stroke-linecap="round" stroke-linejoin="round"/>
</svg>
