<svg width="133" height="132" viewBox="0 0 133 132" fill="none" xmlns="http://www.w3.org/2000/svg">
<g opacity="0.3">
<rect x="17.5713" y="17.0715" width="97.8571" height="97.8571" rx="48.9286" stroke="#0F6FD7" stroke-width="5"/>
</g>
<g opacity="0.1">
<rect x="3.28564" y="2.78564" width="126.429" height="126.429" rx="63.2143" stroke="#0F6FD7" stroke-width="5"/>
</g>
<path fill-rule="evenodd" clip-rule="evenodd" d="M42.3974 67.2836C43.1874 68.0745 43.1866 69.3561 42.3957 70.1461L41.9806 70.5606C41.6261 70.9147 41.6261 71.4878 41.9806 71.8419C42.3365 72.1974 42.9145 72.1974 43.2704 71.8419L47.8361 67.2819C48.627 66.4919 49.9086 66.4927 50.6986 67.2836C51.4886 68.0745 51.4878 69.3561 50.6969 70.1461L46.1312 74.7061C44.1948 76.6402 41.0563 76.6402 39.1198 74.7061C37.1821 72.7707 37.1821 69.6318 39.1198 67.6964L39.5349 67.2819C40.3258 66.4919 41.6074 66.4927 42.3974 67.2836ZM55.4976 69.9723C56.288 70.7628 56.288 72.0443 55.4976 72.8348L49.7845 78.5478C48.994 79.3383 47.7124 79.3383 46.922 78.5478C46.1315 77.7574 46.1315 76.4758 46.922 75.6853L52.6351 69.9723C53.4255 69.1819 54.7071 69.1819 55.4976 69.9723ZM62.9887 77.4542C63.7791 78.2446 63.7791 79.5262 62.9886 80.3167L57.3146 85.9906C56.5242 86.7811 55.2426 86.7811 54.4521 85.9906C53.6617 85.2002 53.6617 83.9186 54.4521 83.1281L60.1261 77.4542C60.9166 76.6637 62.1982 76.6637 62.9887 77.4542ZM54.459 78.5225C55.2406 79.3217 55.2264 80.6032 54.4272 81.3848L49.8134 85.897C49.0142 86.6786 47.7327 86.6643 46.9511 85.8651C46.1694 85.0659 46.1837 83.7844 46.9829 83.0028L51.5967 78.4906C52.3959 77.709 53.6774 77.7233 54.459 78.5225ZM65.6161 82.3147C66.4061 83.1056 66.4053 84.3872 65.6144 85.1771L61.0488 89.7372C60.6942 90.0913 60.6942 90.6644 61.0488 91.0185C61.4046 91.374 61.9827 91.374 62.3386 91.0185L62.7536 90.604C63.5446 89.814 64.8262 89.8148 65.6161 90.6057C66.4061 91.3966 66.4053 92.6782 65.6144 93.4682L65.1993 93.8827C63.2629 95.8168 60.1244 95.8168 58.188 93.8827C56.2502 91.9473 56.2502 88.8084 58.188 86.873L62.7536 82.3129C63.5446 81.523 64.8262 81.5237 65.6161 82.3147Z" fill="#0F6FD7"/>
<path d="M63.9234 48.4242L58.0895 54.2405C57.0172 55.3096 56.0335 56.2903 55.2567 57.1768C54.7578 57.7461 54.2593 58.3692 53.837 59.0577L53.7802 59.001C53.6723 58.8934 53.6183 58.8396 53.5641 58.787C52.5501 57.8031 51.3573 57.0209 50.0497 56.4821C49.9798 56.4534 49.9089 56.4253 49.767 56.369L48.8984 56.0249C47.7217 55.5586 47.4081 54.0438 48.3035 53.1511C50.8732 50.5892 53.9585 47.5133 55.4475 46.8955C56.7606 46.3506 58.1792 46.1694 59.5473 46.3715C60.8009 46.5568 61.9868 47.2007 63.9234 48.4242Z" fill="#0F6FD7"/>
<path d="M73.8847 79.0485C74.3548 79.5257 74.6671 79.8627 74.9492 80.2228C75.3217 80.698 75.6547 81.2027 75.945 81.7319C76.2717 82.3276 76.5254 82.9639 77.0327 84.2366C77.4457 85.2727 78.8178 85.5465 79.6147 84.752L79.8075 84.5598C82.3772 81.9978 85.4624 78.9218 86.082 77.4373C86.6285 76.1281 86.8104 74.7138 86.6076 73.3498C86.4218 72.1001 85.7761 70.918 84.5492 68.9876L78.6958 74.8234C77.5992 75.9168 76.5937 76.9193 75.6842 77.7047C75.1393 78.1753 74.543 78.6457 73.8847 79.0485Z" fill="#0F6FD7"/>
<path fill-rule="evenodd" clip-rule="evenodd" d="M76.3392 72.313L89.7517 58.941C91.6833 57.0152 92.6491 56.0523 93.1578 54.8278C93.6665 53.6034 93.6665 52.2417 93.6665 49.5182V48.2171C93.6665 44.0292 93.6665 41.9353 92.3616 40.6343C91.0566 39.3333 88.9563 39.3333 84.7558 39.3333H83.4508C80.7191 39.3333 79.3533 39.3333 78.1251 39.8404C76.897 40.3476 75.9312 41.3105 73.9996 43.2363L60.5871 56.6084C58.33 58.8586 56.9305 60.2539 56.3886 61.6016C56.2173 62.0274 56.1317 62.4485 56.1317 62.8902C56.1317 64.7301 57.6169 66.2108 60.5871 69.1721L60.9863 69.5701L65.6626 64.8241C66.3295 64.1473 67.4188 64.1392 68.0956 64.8061C68.7725 65.473 68.7805 66.5623 68.1136 67.2391L63.4231 71.9995L63.7375 72.313C66.7078 75.2743 68.1929 76.755 70.0384 76.755C70.4461 76.755 70.8363 76.6827 71.2288 76.5381C72.6126 76.0284 74.0252 74.62 76.3392 72.313ZM82.6403 56.6093C80.9004 58.344 78.0794 58.344 76.3395 56.6093C74.5995 54.8747 74.5995 52.0622 76.3395 50.3275C78.0794 48.5928 80.9004 48.5928 82.6403 50.3275C84.3802 52.0622 84.3802 54.8747 82.6403 56.6093Z" fill="#0F6FD7"/>
</svg>
