<svg width="41" height="40" viewBox="0 0 41 40" fill="none" xmlns="http://www.w3.org/2000/svg">
<path d="M9.60964 4.21826C10.0983 3.73059 10.0991 2.93914 9.6114 2.45049C9.12373 1.96185 8.33227 1.96106 7.84363 2.44873C4.59526 5.69063 2.58325 10.1767 2.58325 15.1304C2.58325 20.1422 4.64266 24.6752 7.9582 27.9254C8.45118 28.4087 9.2426 28.4009 9.72588 27.9079C10.2092 27.4149 10.2013 26.6235 9.70831 26.1402C6.85264 23.3407 5.08325 19.4433 5.08325 15.1304C5.08325 10.8673 6.81196 7.01036 9.60964 4.21826Z" fill="#9C9C9C"/>
<path d="M33.2949 2.5887C32.8117 2.09572 32.0202 2.08785 31.5273 2.57113C31.0343 3.05441 31.0264 3.84583 31.5097 4.33881C34.237 7.12088 35.9166 10.9283 35.9166 15.1304C35.9166 19.3824 34.1969 23.2303 31.4121 26.0207C30.9244 26.5093 30.9252 27.3008 31.4138 27.7885C31.9025 28.2761 32.6939 28.2754 33.1816 27.7867C36.4151 24.5468 38.4166 20.0712 38.4166 15.1304C38.4166 10.2478 36.4618 5.81914 33.2949 2.5887Z" fill="#9C9C9C"/>
<path d="M14.2901 9.3764C14.7941 8.90469 14.8203 8.11367 14.3486 7.6096C13.8769 7.10554 13.0859 7.0793 12.5818 7.55101C10.5357 9.46578 9.24992 12.1353 9.24992 15.1007C9.24992 18.101 10.566 20.798 12.654 22.7173C13.1622 23.1845 13.953 23.1512 14.4202 22.643C14.8874 22.1347 14.8541 21.344 14.3458 20.8768C12.7311 19.3924 11.7499 17.3465 11.7499 15.1007C11.7499 12.8807 12.7085 10.8564 14.2901 9.3764Z" fill="#9C9C9C"/>
<path d="M28.5054 7.63368C28.0065 7.15649 27.2152 7.17409 26.738 7.67297C26.2609 8.17186 26.2784 8.96312 26.7773 9.4403C28.3185 10.9144 29.2499 12.9123 29.2499 15.1007C29.2499 17.3149 28.2963 19.3345 26.7222 20.8134C26.219 21.2861 26.1944 22.0772 26.6671 22.5803C27.1398 23.0834 27.9309 23.1081 28.434 22.6354C30.4708 20.7217 31.7499 18.0583 31.7499 15.1007C31.7499 12.178 30.5007 9.54222 28.5054 7.63368Z" fill="#9C9C9C"/>
<path fill-rule="evenodd" clip-rule="evenodd" d="M22.8736 19.0519C24.1982 18.2485 25.0833 16.7928 25.0833 15.1304C25.0833 12.5991 23.0312 10.547 20.4999 10.547C17.9686 10.547 15.9166 12.5991 15.9166 15.1304C15.9166 16.7928 16.8016 18.2485 18.1262 19.0519L12.6421 36.2878C12.4614 36.8558 12.7068 37.4723 13.2283 37.7607C13.7499 38.0491 14.4025 37.9292 14.7875 37.4743L20.4999 30.7232L26.2124 37.4743C26.5973 37.9292 27.25 38.0491 27.7715 37.7607C28.2931 37.4723 28.5384 36.8558 28.3577 36.2878L22.8736 19.0519ZM20.4999 13.047C19.3493 13.047 18.4166 13.9798 18.4166 15.1304C18.4166 16.0313 18.9884 16.7986 19.789 17.0892C19.8745 17.0977 19.9604 17.1152 20.0456 17.1423C20.0864 17.1553 20.126 17.1702 20.1645 17.1868C20.2737 17.2045 20.3857 17.2137 20.4999 17.2137C20.6141 17.2137 20.7261 17.2045 20.8353 17.1868C20.8738 17.1702 20.9135 17.1553 20.9542 17.1423C21.0394 17.1152 21.1254 17.0977 21.2109 17.0892C22.0114 16.7986 22.5833 16.0313 22.5833 15.1304C22.5833 13.9798 21.6505 13.047 20.4999 13.047ZM24.0775 31.0809L22.1374 28.788L23.0171 27.7483L24.0775 31.0809ZM22.0457 25.0261C22.0708 24.9964 22.0969 24.9683 22.1241 24.9415L20.4999 19.8371L18.8758 24.9415C18.9029 24.9683 18.9291 24.9964 18.9542 25.0261L20.4999 26.8529L22.0457 25.0261ZM18.8625 28.788L17.9827 27.7483L16.9223 31.0809L18.8625 28.788Z" fill="#9C9C9C"/>
</svg>
